<?xml version="1.0" encoding="UTF-8"?>
<!DOCTYPE svg PUBLIC "-//W3C//DTD SVG 1.1//EN" "http://www.w3.org/Graphics/SVG/1.1/DTD/svg11.dtd">
<svg xmlns="http://www.w3.org/2000/svg" version="1.1" width="321px" height="141px" style="shape-rendering:geometricPrecision; text-rendering:geometricPrecision; image-rendering:optimizeQuality; fill-rule:evenodd; clip-rule:evenodd" xmlns:xlink="http://www.w3.org/1999/xlink">
<g><path style="opacity:0.666" fill="#010202" d="M 32.5,-0.5 C 39.5,-0.5 46.5,-0.5 53.5,-0.5C 67.6301,4.47744 75.7968,14.4774 78,29.5C 78.6377,35.6261 77.971,41.6261 76,47.5C 72.3649,53.4797 68.6982,59.4797 65,65.5C 60.4783,77.2545 63.145,86.9211 73,94.5C 73.6667,98.5 73.6667,102.5 73,106.5C 69.4752,109.008 68.9752,111.842 71.5,115C 52.5,115.667 33.5,115.667 14.5,115C 15.5762,113.274 15.7429,111.441 15,109.5C 12.6201,107.573 11.4534,105.073 11.5,102C 7.95107,80.7655 15.6177,65.0989 34.5,55C 36.8878,52.9495 38.8878,50.6162 40.5,48C 40.3333,47.5 40.1667,47 40,46.5C 36.2211,47.3457 32.3878,47.5123 28.5,47C 25.1906,50.1631 21.5239,52.6631 17.5,54.5C 10.5012,53.1651 8.1679,49.1651 10.5,42.5C 13.973,38.6054 17.6396,34.9387 21.5,31.5C 22.1232,26.9201 24.2899,23.2535 28,20.5C 28.755,17.6967 28.4217,15.0301 27,12.5C 24.2518,10.5421 21.4185,8.70876 18.5,7C 22.8857,3.82815 27.5524,1.32815 32.5,-0.5 Z M 67.5,33.5 C 65.3237,26.4694 60.9903,20.9694 54.5,17C 57.6981,17.4673 60.5314,18.9673 63,21.5C 65.912,24.9872 67.412,28.9872 67.5,33.5 Z M 28.5,28.5 C 29.8734,28.3433 31.2068,28.51 32.5,29C 30.9194,29.7065 29.4194,30.5399 28,31.5C 27.5304,30.4232 27.6971,29.4232 28.5,28.5 Z M 14.5,43.5 C 15.7125,44.4971 15.5458,45.4971 14,46.5C 13.5304,45.4232 13.6971,44.4232 14.5,43.5 Z M 21.5,72.5 C 21.8256,69.9986 23.1589,68.8319 25.5,69C 24.2949,70.3756 22.9616,71.5423 21.5,72.5 Z"/></g>
<g><path style="opacity:1" fill="#030606" d="M 33.5,1.5 C 39.8421,1.33379 46.1754,1.50046 52.5,2C 49.3094,5.11444 48.6428,8.7811 50.5,13C 51.061,16.4481 49.8943,17.6148 47,16.5C 46.4213,12.7973 46.588,9.13059 47.5,5.5C 43.678,6.1797 42.0114,8.51303 42.5,12.5C 39.6887,12.8257 37.022,13.6591 34.5,15C 33.1667,16 33.1667,17 34.5,18C 36.8132,17.8509 39.1465,17.3509 41.5,16.5C 43.419,18.4675 45.2524,20.4675 47,22.5C 49.659,21.783 52.159,20.783 54.5,19.5C 64.0677,26.3675 67.5677,35.7008 65,47.5C 63.8277,51.8407 62.661,56.1741 61.5,60.5C 63.2895,59.9866 64.9562,59.4866 66.5,59C 57.2821,72.8679 58.7821,85.3679 71,96.5C 72.3103,101.452 71.3103,105.785 68,109.5C 67.51,110.793 67.3433,112.127 67.5,113.5C 50.8333,113.5 34.1667,113.5 17.5,113.5C 17.6602,111.801 17.4935,110.134 17,108.5C 14.7683,106.703 13.6017,104.37 13.5,101.5C 13.8742,95.5362 14.0408,89.5362 14,83.5C 14.8232,76.8656 15.3232,76.8656 15.5,83.5C 18.766,83.5674 20.266,81.9008 20,78.5C 22.47,74.7476 25.47,71.4143 29,68.5C 29.4828,67.552 29.6495,66.552 29.5,65.5C 27.8008,65.6602 26.1341,65.4935 24.5,65C 30.61,60.5245 36.4433,55.6912 42,50.5C 43.1097,48.6031 43.2764,46.7698 42.5,45C 38.3508,45.7735 34.1841,45.6068 30,44.5C 25.5598,45.6408 22.0598,48.1408 19.5,52C 17.316,52.4424 15.316,51.9424 13.5,50.5C 15.2611,48.7475 16.5944,46.7475 17.5,44.5C 17.4096,42.5749 16.4096,41.4083 14.5,41C 17.9646,38.5374 21.1312,35.7041 24,32.5C 24.3333,30.5 24.6667,28.5 25,26.5C 33.6245,18.9814 32.7911,12.4814 22.5,7C 26.0167,4.6738 29.6834,2.84047 33.5,1.5 Z M 28.5,28.5 C 27.6971,29.4232 27.5304,30.4232 28,31.5C 29.4194,30.5399 30.9194,29.7065 32.5,29C 31.2068,28.51 29.8734,28.3433 28.5,28.5 Z"/></g>
<g><path style="opacity:1" fill="#030706" d="M 53.5,2.5 C 65.6209,5.45646 72.7876,13.1231 75,25.5C 77.6339,37.6319 74.9672,48.2985 67,57.5C 70.6166,47.8048 71.2833,37.8048 69,27.5C 66.5803,20.912 62.0803,16.5787 55.5,14.5C 54.6245,10.5384 53.9578,6.53837 53.5,2.5 Z"/></g>
<g><path style="opacity:0.894" fill="#000000" d="M 193.5,21.5 C 194.331,36.9946 194.831,52.6613 195,68.5C 195.9,69.7702 197.066,70.7702 198.5,71.5C 192.5,72.8333 186.5,72.8333 180.5,71.5C 181.628,70.7379 182.795,70.0712 184,69.5C 184.667,55.1667 184.667,40.8333 184,26.5C 182.926,25.3816 181.76,24.3816 180.5,23.5C 184.982,22.8331 189.316,22.1664 193.5,21.5 Z"/></g>
<g><path style="opacity:0.851" fill="#000000" d="M 166.5,22.5 C 175.058,21.5276 177.391,24.6943 173.5,32C 166.244,34.6255 163.078,32.1255 164,24.5C 164.995,23.9341 165.828,23.2674 166.5,22.5 Z"/></g>
<g><path style="opacity:0.845" fill="#000000" d="M 98.5,26.5 C 104.537,26.1707 110.537,26.5041 116.5,27.5C 115.389,28.6113 114.722,29.9446 114.5,31.5C 117.172,40.6832 120.339,49.6832 124,58.5C 126.233,53.1342 128.066,47.6342 129.5,42C 128.344,36.3428 126.344,31.1761 123.5,26.5C 129.868,26.1703 136.202,26.5037 142.5,27.5C 140.833,28.6667 139.167,29.8333 137.5,31C 140.862,40.0862 144.029,49.2529 147,58.5C 149.894,50.4156 152.394,42.2489 154.5,34C 153.809,32.9326 153.309,31.7659 153,30.5C 151.155,29.9505 149.655,28.9505 148.5,27.5C 153.167,26.1667 157.833,26.1667 162.5,27.5C 161.185,29.3159 159.685,30.9825 158,32.5C 153.523,46.0947 149.357,59.7614 145.5,73.5C 143.533,73.7394 141.699,73.4061 140,72.5C 137,63.5 134,54.5 131,45.5C 128,54.5 125,63.5 122,72.5C 120.186,73.7596 118.353,73.7596 116.5,72.5C 111.455,56.6808 105.455,41.3474 98.5,26.5 Z"/></g>
<g><path style="opacity:0.896" fill="#000000" d="M 160.5,38.5 C 165.104,39.5157 169.77,39.5157 174.5,38.5C 174.237,49.2053 174.57,59.872 175.5,70.5C 176.978,70.238 178.311,70.5713 179.5,71.5C 173.167,72.8333 166.833,72.8333 160.5,71.5C 161.628,70.7379 162.795,70.0712 164,69.5C 164.667,60.5 164.667,51.5 164,42.5C 162.989,41.6634 161.822,41.33 160.5,41.5C 160.5,40.5 160.5,39.5 160.5,38.5 Z"/></g>
<g><path style="opacity:0.847" fill="#000000" d="M 208.5,38.5 C 213.37,38.0316 218.036,38.6982 222.5,40.5C 223.167,39.8333 223.833,39.1667 224.5,38.5C 225.833,42.5 225.833,46.5 224.5,50.5C 223.508,46.6845 221.508,43.5178 218.5,41C 212.567,39.9248 210.733,42.0915 213,47.5C 218.621,50.7873 223.288,55.1207 227,60.5C 228.138,66.39 225.972,70.5567 220.5,73C 215.491,73.9389 210.658,73.4389 206,71.5C 205.05,72.0223 204.216,72.689 203.5,73.5C 202.167,68.8333 202.167,64.1667 203.5,59.5C 204.879,63.1362 206.545,66.6362 208.5,70C 215.932,72.4877 218.099,69.9877 215,62.5C 210.247,59.1492 206.247,55.1492 203,50.5C 201.873,45.0891 203.707,41.0891 208.5,38.5 Z"/></g>
<g><path style="opacity:0.874" fill="#000000" d="M 240.5,38.5 C 257.921,36.4211 265.421,44.0878 263,61.5C 259.797,72.2624 252.63,76.0957 241.5,73C 237.814,71.9114 234.981,69.7447 233,66.5C 230.489,58.1501 231.155,50.1501 235,42.5C 236.812,41.0229 238.645,39.6896 240.5,38.5 Z M 245.5,40.5 C 249.578,40.2604 251.744,42.2604 252,46.5C 252.667,52.8333 252.667,59.1667 252,65.5C 251.345,71.4736 248.679,72.8069 244,69.5C 240.323,59.4974 240.823,49.8307 245.5,40.5 Z"/></g>
<g><path style="opacity:0.887" fill="#000000" d="M 275.5,38.5 C 277.167,38.5 278.833,38.5 280.5,38.5C 280.343,39.8734 280.51,41.2068 281,42.5C 285.091,38.6951 289.924,37.5284 295.5,39C 296.931,39.4652 298.097,40.2986 299,41.5C 300.22,50.7736 300.887,60.107 301,69.5C 302.205,70.0712 303.372,70.7379 304.5,71.5C 298.5,72.8333 292.5,72.8333 286.5,71.5C 287.934,70.7702 289.1,69.7702 290,68.5C 290.667,60.5 290.667,52.5 290,44.5C 286.486,40.6887 283.486,41.3553 281,46.5C 280.333,53.8333 280.333,61.1667 281,68.5C 281.9,69.7702 283.066,70.7702 284.5,71.5C 278.5,72.8333 272.5,72.8333 266.5,71.5C 267.628,70.7379 268.795,70.0712 270,69.5C 270.667,60.5 270.667,51.5 270,42.5C 268.795,41.9288 267.628,41.2621 266.5,40.5C 269.642,39.8326 272.642,39.166 275.5,38.5 Z"/></g>
<g><path style="opacity:0.89" fill="#000000" d="M 145.5,85.5 C 150.167,85.5 154.833,85.5 159.5,85.5C 159.334,92.175 159.5,98.8417 160,105.5C 161.008,103.741 162.508,102.574 164.5,102C 168.9,101.022 173.067,101.522 177,103.5C 177.973,105.392 178.64,107.392 179,109.5C 179.333,117.167 179.667,124.833 180,132.5C 181.205,133.071 182.372,133.738 183.5,134.5C 177.5,135.833 171.5,135.833 165.5,134.5C 166.325,133.614 167.325,133.281 168.5,133.5C 170.129,124.059 169.796,114.726 167.5,105.5C 163.96,104.522 161.46,105.855 160,109.5C 159.333,117.167 159.333,124.833 160,132.5C 161.205,133.071 162.372,133.738 163.5,134.5C 157.5,135.833 151.5,135.833 145.5,134.5C 146.628,133.738 147.795,133.071 149,132.5C 149.667,118.5 149.667,104.5 149,90.5C 147.351,89.1155 146.184,87.4488 145.5,85.5 Z"/></g>
<g><path style="opacity:0.815" fill="#000000" d="M 121.5,88.5 C 127.436,88.3159 132.769,89.9826 137.5,93.5C 138.5,92.1667 139.5,90.8333 140.5,89.5C 141.833,95.1667 141.833,100.833 140.5,106.5C 139.034,101.418 136.367,96.9179 132.5,93C 122.809,89.9324 116.976,93.4324 115,103.5C 114.152,110.899 114.485,118.233 116,125.5C 121.555,136.259 128.555,137.259 137,128.5C 137.879,125.182 138.713,121.848 139.5,118.5C 140.086,118.709 140.586,119.043 141,119.5C 141.829,124.864 141.663,130.198 140.5,135.5C 139.281,134.737 138.281,133.737 137.5,132.5C 130.275,136.763 122.608,137.596 114.5,135C 105.974,130.46 101.641,123.293 101.5,113.5C 101.8,99.8301 108.467,91.4967 121.5,88.5 Z"/></g>
<g><path style="opacity:0.845" fill="#000000" d="M 195.5,101.5 C 208.205,98.7386 214.205,103.572 213.5,116C 207.843,116.499 202.176,116.666 196.5,116.5C 195.923,121.081 196.923,125.248 199.5,129C 204.881,131.66 209.215,130.493 212.5,125.5C 213.122,130.714 210.789,134.214 205.5,136C 189.569,137.055 183.069,129.555 186,113.5C 187.194,107.819 190.36,103.819 195.5,101.5 Z M 199.5,103.5 C 200.822,103.33 201.989,103.663 203,104.5C 204.461,107.679 205.295,111.012 205.5,114.5C 202.5,114.5 199.5,114.5 196.5,114.5C 195.944,110.334 196.944,106.668 199.5,103.5 Z"/></g>
<g><path style="opacity:0.842" fill="#000000" d="M 224.5,101.5 C 229.37,101.032 234.036,101.698 238.5,103.5C 239.623,101.711 240.956,101.378 242.5,102.5C 241.899,106.159 241.233,109.826 240.5,113.5C 239.262,110.617 237.928,107.783 236.5,105C 229.702,101.826 227.202,103.659 229,110.5C 234.621,113.787 239.288,118.121 243,123.5C 244.119,129.429 241.953,133.596 236.5,136C 231.491,136.939 226.658,136.439 222,134.5C 221.05,135.022 220.216,135.689 219.5,136.5C 218.167,131.833 218.167,127.167 219.5,122.5C 220.941,126.073 222.608,129.573 224.5,133C 228.728,135.529 231.728,134.529 233.5,130C 230.973,125.228 227.307,121.562 222.5,119C 216.701,112.312 217.368,106.479 224.5,101.5 Z"/></g>
<g><path style="opacity:0.843" fill="#000000" d="M 254.5,101.5 C 258.182,101.335 261.848,101.501 265.5,102C 266.416,102.374 267.25,102.874 268,103.5C 268.689,102.643 269.522,101.977 270.5,101.5C 271.833,105.5 271.833,109.5 270.5,113.5C 269.138,109.944 267.138,106.778 264.5,104C 256.502,104.287 255.502,107.287 261.5,113C 267.693,115.854 271.693,120.521 273.5,127C 271.881,133.776 267.547,136.943 260.5,136.5C 257.479,136.583 254.645,135.916 252,134.5C 250.7,135.707 249.2,136.374 247.5,136.5C 247.987,131.821 248.653,127.154 249.5,122.5C 250.464,126.907 252.464,130.74 255.5,134C 261,135.167 263.167,133 262,127.5C 257.194,123.605 252.86,119.272 249,114.5C 247.102,108.387 248.935,104.053 254.5,101.5 Z"/></g>
<g><path style="opacity:0.637" fill="#010202" d="M -0.5,127.5 C -0.5,127.167 -0.5,126.833 -0.5,126.5C 28.5077,126.833 57.5077,126.5 86.5,125.5C 83.662,121.292 79.662,119.459 74.5,120C 52.1667,119.333 29.8333,119.333 7.5,120C 4.35151,120.738 1.68484,122.238 -0.5,124.5C -0.5,123.5 -0.5,122.5 -0.5,121.5C 2.7932,119.251 6.45986,117.751 10.5,117C 31.1667,116.333 51.8333,116.333 72.5,117C 75.7111,118.153 79.0445,118.82 82.5,119C 86.4877,120.484 88.1544,123.317 87.5,127.5C 58.1667,127.5 28.8333,127.5 -0.5,127.5 Z"/></g>
<g><path style="opacity:1" fill="#030706" d="M -0.5,126.5 C -0.5,125.833 -0.5,125.167 -0.5,124.5C 1.68484,122.238 4.35151,120.738 7.5,120C 29.8333,119.333 52.1667,119.333 74.5,120C 79.662,119.459 83.662,121.292 86.5,125.5C 57.5077,126.5 28.5077,126.833 -0.5,126.5 Z"/></g>
<g><path style="opacity:0.526" fill="#010202" d="M -0.5,128.5 C 28.8333,128.5 58.1667,128.5 87.5,128.5C 87.1255,132.664 87.1255,136.664 87.5,140.5C 58.1667,140.5 28.8333,140.5 -0.5,140.5C -0.5,138.5 -0.5,136.5 -0.5,134.5C 28.5,134.5 57.5,134.5 86.5,134.5C 86.5,133.167 86.5,131.833 86.5,130.5C 57.5,130.5 28.5,130.5 -0.5,130.5C -0.5,129.833 -0.5,129.167 -0.5,128.5 Z"/></g>
<g><path style="opacity:1" fill="#030706" d="M -0.5,130.5 C 28.5,130.5 57.5,130.5 86.5,130.5C 86.5,131.833 86.5,133.167 86.5,134.5C 57.5,134.5 28.5,134.5 -0.5,134.5C -0.5,133.167 -0.5,131.833 -0.5,130.5 Z"/></g>
</svg>
